<?xml version="1.0" encoding="utf-8"?>
<!-- Generator: Adobe Illustrator 19.1.0, SVG Export Plug-In . SVG Version: 6.00 Build 0)  -->
<!DOCTYPE svg PUBLIC "-//W3C//DTD SVG 1.1//EN" "http://www.w3.org/Graphics/SVG/1.1/DTD/svg11.dtd">
<svg version="1.1" id="mandala_tracé" xmlns="http://www.w3.org/2000/svg" xmlns:xlink="http://www.w3.org/1999/xlink" x="0px"
	 y="0px" viewBox="0 0 155.9 155.9" enable-background="new 0 0 155.9 155.9" xml:space="preserve">
<circle fill="#FFFFFF" cx="78" cy="78" r="78"/>
<ellipse fill="#DADADA" cx="77.7" cy="130.4" rx="27.4" ry="3.9"/>
<path fill="none" stroke="#EE7899" stroke-width="0.7386" stroke-miterlimit="10" d="M41.8,111.3c0,0-5.6-2.9-3.2,1.2
	c0.9,1.6,2.6,5.4-1.2,1.8c-0.7-0.9-3.2-3.1-1.2,1.1c0.7,1.8,0.6,2.7-1.8,0c-1-1.1-2.4-3.1-1,2.6c0.4,2-0.4,2.2-2-0.9
	c-0.7-1.3-2-2.7-1.6,1.6c0,2.8-1.1,2.7-1.8-0.5c-0.5-2-0.9-2.2-1.8,0c-0.9,2.1-2.2,3.2-1.8-0.5c0.2-2.4,0.5-2.9-1.3-0.5
	c-1.5,1.6-2.8,2-1.5-1.1c1.1-2.4,1-3.6-1.4-1.3c-1.1,1.3-3.2,1.8-1-1.3c1.5-2,1.5-2.4-1-1.6c-1.4,0.5-4,0.8-0.7-1.8
	c1.8-1.3,1.5-1.5-1.4-1c-1.7,0.4-2.5-0.7,0-2.2c2-1,1.9-1.5-0.6-1.5c-2.2,0-2.6-0.6,0.3-1.9c2.7-1.1,2.3-1.8-0.5-1.6
	c-2,0.2-4.1-0.8,0-1.8c1.8-0.4,3-0.9-0.4-1.6c-2.5-0.4-4-1.6,0.5-2c1.9-0.1,3-0.7-0.2-1.6c-2.4-0.6-2.7-1.4,0.5-1.7
	c2.2-0.2,3.2-0.7,0.2-1.5c-2.3-0.7-3.7-1.6,0.5-1.8c2.3-0.1,2.9-0.3,0.5-1.6c-2.3-1-3-2.2,0.5-1.9c2.2,0.1,3.3-0.3,0.1-2.1
	c-1.6-0.9-2.6-1.6,1.1-1.5c2.4,0.1,2.5-0.2,0.3-1.4c-2.1-1.2-2.3-1.7,0.7-1.6c2.8,0.2,3.3,0.3,0.9-1.5c-1.4-1.1-3-2.3,0.6-1.6
	c2.2,0.3,4.2,0.5,1.1-1.9c-1.6-1.2-2.6-2.2,1.1-1.2c1.9,0.5,2.9,0.6,0.6-1.1c-2.3-1.8-3.4-3.8,0.9-2c1.2,0.4,1.8,0.1,1.8-2.7"/>
<path fill="#49B69F" d="M121.5,81.3c-10.2-14.5-15.9-20.1-15.7-29.6c0,0-7.6-4.6-23.5-4.6c-15.6,0-23.5,4.6-23.5,4.6
	c0.2,9.5-5.5,15.2-15.7,29.6c-16.2,20.7-1.3,31.6,0.7,32.9c2.7,2.7,17.9,4.6,38.5,4.6c20.3,0,35.6-1.7,38.4-4.5
	C121.7,113.6,138.3,102.7,121.5,81.3z"/>
<circle fill="#49B69F" stroke="#EE7899" stroke-width="0.9848" stroke-miterlimit="10" cx="82.2" cy="79.1" r="22.8"/>
<circle fill="#FFFFFF" cx="73.5" cy="65.2" r="2.7"/>
<circle fill="#FFFFFF" cx="67.8" cy="71.3" r="2.7"/>
<circle fill="#FFFFFF" cx="91.1" cy="65.2" r="2.7"/>
<circle fill="#FFFFFF" cx="96.9" cy="71.3" r="2.7"/>
<circle fill="#FFFFFF" cx="65.8" cy="79.1" r="2.7"/>
<circle fill="#FFFFFF" cx="82.2" cy="62.7" r="2.7"/>
<circle fill="#FFFFFF" cx="91" cy="93.1" r="2.7"/>
<circle fill="#FFFFFF" cx="73.4" cy="93.1" r="2.7"/>
<circle fill="#FFFFFF" cx="67.6" cy="86.9" r="2.7"/>
<circle fill="#FFFFFF" cx="98.7" cy="79.1" r="2.7"/>
<circle fill="#FFFFFF" cx="82.2" cy="95.6" r="2.7"/>
<path fill="#FFFFFF" d="M106.3,89v4.2c0,0-9.8-1.2-12.4-7c-0.4-0.9-0.5-3.1,1.3-1.1C96.1,86.2,99.9,89,106.3,89z"/>
<path fill="#814795" d="M126.9,40c-15.4-8.8-44.8-8.8-44.8-8.8s-29.3,0-44.8,8.8c-2.7-0.2-17.5,2.8-15.5,20.8
	c0.2,2.7,2.2,7.5,5.5,10.4c1.2,1.3,2.8,1.8,4,2.1c2,0.2,8.6,0.6,17.8-8.8c3.1-3.1,7.6-9,7.4-14.6c-0.4-0.8-1-1.9-1.4-2.5
	c-0.6-0.9-1.6-1.9-3.2-2.8c3.7-0.5,13.2-2.7,30.2-2.9c17,0.2,26.5,2.4,30.2,2.9c-1.7,1-2.7,2-3.3,3c-0.8,1.1-1,1.8-1.3,2.3
	c-0.2,5.7,4.3,11.5,7.4,14.6c9.2,9.4,15.8,9,17.8,8.8c1.2-0.3,3.1-1.4,4.2-2.3c3.2-2.9,5.1-7.6,5.3-10.2
	C144.4,42.7,129.6,39.8,126.9,40z"/>
</svg>
