<?xml version="1.0" encoding="utf-8"?>
<!-- Generator: Adobe Illustrator 19.1.0, SVG Export Plug-In . SVG Version: 6.00 Build 0)  -->
<!DOCTYPE svg PUBLIC "-//W3C//DTD SVG 1.1//EN" "http://www.w3.org/Graphics/SVG/1.1/DTD/svg11.dtd">
<svg version="1.1" id="mandala_tracé" xmlns="http://www.w3.org/2000/svg" xmlns:xlink="http://www.w3.org/1999/xlink" x="0px"
	 y="0px" viewBox="0 0 155.9 155.9" enable-background="new 0 0 155.9 155.9" xml:space="preserve">
<pattern  x="18.3" y="8.8" width="54.6" height="3.2" patternUnits="userSpaceOnUse" id="Nouvelle_nuance_de_motif_2" viewBox="0 -3.2 54.6 3.2" overflow="visible">
	<g>
		<polygon fill="none" points="0,0 54.6,0 54.6,-3.2 0,-3.2 		"/>
		<polygon fill="#EE7899" points="3.4,0 1.7,0 1.7,-3.2 3.4,-3.2 		"/>
		<polygon fill="#EE7899" points="6.8,0 5.1,0 5.1,-3.2 6.8,-3.2 		"/>
		<polygon fill="#FFFFFF" points="1.7,0 0,0 0,-3.2 1.7,-3.2 		"/>
		<polygon fill="#FFFFFF" points="5.1,0 3.4,0 3.4,-3.2 5.1,-3.2 		"/>
		<polygon fill="#EE7899" points="10.2,0 8.5,0 8.5,-3.2 10.2,-3.2 		"/>
		<polygon fill="#EE7899" points="13.6,0 11.9,0 11.9,-3.2 13.6,-3.2 		"/>
		<polygon fill="#FFFFFF" points="8.5,0 6.8,0 6.8,-3.2 8.5,-3.2 		"/>
		<polygon fill="#FFFFFF" points="11.9,0 10.2,0 10.2,-3.2 11.9,-3.2 		"/>
		<polygon fill="#EE7899" points="17.1,0 15.4,0 15.4,-3.2 17.1,-3.2 		"/>
		<polygon fill="#EE7899" points="20.5,0 18.8,0 18.8,-3.2 20.5,-3.2 		"/>
		<polygon fill="#FFFFFF" points="15.4,0 13.6,0 13.6,-3.2 15.4,-3.2 		"/>
		<polygon fill="#FFFFFF" points="18.8,0 17.1,0 17.1,-3.2 18.8,-3.2 		"/>
		<polygon fill="#EE7899" points="23.9,0 22.2,0 22.2,-3.2 23.9,-3.2 		"/>
		<polygon fill="#EE7899" points="27.3,0 25.6,0 25.6,-3.2 27.3,-3.2 		"/>
		<polygon fill="#FFFFFF" points="22.2,0 20.5,0 20.5,-3.2 22.2,-3.2 		"/>
		<polygon fill="#FFFFFF" points="25.6,0 23.9,0 23.9,-3.2 25.6,-3.2 		"/>
		<polygon fill="#EE7899" points="30.7,0 29,0 29,-3.2 30.7,-3.2 		"/>
		<polygon fill="#EE7899" points="34.1,0 32.4,0 32.4,-3.2 34.1,-3.2 		"/>
		<polygon fill="#FFFFFF" points="29,0 27.3,0 27.3,-3.2 29,-3.2 		"/>
		<polygon fill="#FFFFFF" points="32.4,0 30.7,0 30.7,-3.2 32.4,-3.2 		"/>
		<polygon fill="#EE7899" points="37.5,0 35.8,0 35.8,-3.2 37.5,-3.2 		"/>
		<polygon fill="#EE7899" points="41,0 39.2,0 39.2,-3.2 41,-3.2 		"/>
		<polygon fill="#FFFFFF" points="35.8,0 34.1,0 34.1,-3.2 35.8,-3.2 		"/>
		<polygon fill="#FFFFFF" points="39.2,0 37.5,0 37.5,-3.2 39.2,-3.2 		"/>
		<polygon fill="#EE7899" points="44.4,0 42.7,0 42.7,-3.2 44.4,-3.2 		"/>
		<polygon fill="#EE7899" points="47.8,0 46.1,0 46.1,-3.2 47.8,-3.2 		"/>
		<polygon fill="#FFFFFF" points="42.7,0 40.9,0 40.9,-3.2 42.7,-3.2 		"/>
		<polygon fill="#FFFFFF" points="46.1,0 44.4,0 44.4,-3.2 46.1,-3.2 		"/>
		<polygon fill="#EE7899" points="51.2,0 49.5,0 49.5,-3.2 51.2,-3.2 		"/>
		<polygon fill="#EE7899" points="54.6,0 52.9,0 52.9,-3.2 54.6,-3.2 		"/>
		<polygon fill="#FFFFFF" points="49.5,0 47.8,0 47.8,-3.2 49.5,-3.2 		"/>
		<polygon fill="#FFFFFF" points="52.9,0 51.2,0 51.2,-3.2 52.9,-3.2 		"/>
	</g>
</pattern>
<circle fill="#FFFFFF" cx="78" cy="78" r="78"/>
<ellipse fill="#DADADA" cx="78" cy="130.8" rx="25.5" ry="3.6"/>
<path fill="#49B69F" d="M131.8,118.4H24.3c-1.1,0-2.1-0.9-2.1-2.1V33.1c0-1.1,0.9-2.1,2.1-2.1h107.5c1.1,0,2.1,0.9,2.1,2.1v83.3
	C133.9,117.5,132.9,118.4,131.8,118.4z"/>
<path fill="#2F917E" d="M22.5,115.6l-0.2,0.1c0,0,0.8,2.7,4.4,2.7c0.2,0,51.3-43.8,51.3-43.8L22.5,115.6z"/>
<path fill="#2F917E" d="M133.7,115.6l0.2,0.1c0,0-0.8,2.7-4.4,2.7c-0.2,0-51.3-43.8-51.3-43.8L133.7,115.6z"/>
<pattern  id="SVGID_1_" xlink:href="#Nouvelle_nuance_de_motif_2" patternTransform="matrix(0.9141 0 0 0.9141 -694.8711 -690.074)">
</pattern>
<path fill="url(#SVGID_1_)" d="M22.3,35.6l55.8,39.1l55.8-39.1c0,0,0.1-4.6-3.8-4.6c-52,37.6-52,37.6-52,37.6L26,31
	C26,31,21.6,30.3,22.3,35.6z"/>
<g>
	<path fill="#2F917E" d="M92.3,75.8C92,68.5,86.5,63.2,79,63.4c-7.5,0.3-12.5,6-12.2,13.3C67.1,84,72.5,89.3,80,89
		C87.5,88.7,92.5,83,92.3,75.8"/>
</g>
<path fill="none" stroke="#EE7899" stroke-width="1.3711" stroke-miterlimit="10" d="M131.8,118.5H24.3c-1.1,0-2.1-0.9-2.1-2.1V33.1
	c0-1.1,0.9-2.1,2.1-2.1h107.5c1.1,0,2.1,0.9,2.1,2.1v83.3C133.9,117.6,132.9,118.5,131.8,118.5z"/>
<g>
	<path fill="none" stroke="#FFFFFF" stroke-width="1.8281" stroke-miterlimit="10" d="M89.7,74.5c0-6.7-4.8-11.8-11.8-11.8
		c-6.9,0-11.7,5.1-11.7,11.8c0,6.7,4.8,11.8,11.7,11.8C84.9,86.3,89.7,81.2,89.7,74.5"/>
</g>
<g>
	<g>
		<path fill="#FFFFFF" d="M88.4,74.2c-0.2-6-4.7-10.4-10.9-10.1c-6.2,0.2-10.3,4.9-10.1,10.9c0.2,6,4.7,10.3,10.8,10.1
			C84.5,84.8,88.7,80.1,88.4,74.2"/>
	</g>
	<g>
		<path fill="#844695" d="M83.4,68.2c-0.2,2.2-2.1,3.8-2.9,5.3c-0.7,1.2-1.2,2.7-1.3,4.7c-0.1,1.3,0,2.7-0.7,3.3
			c-1.6,1.3-4.4-0.3-3.5-2.5c1.3-3.8,5.6-5.6,6.8-8.4c-0.5,0.2-0.6,0.6-1.3,0.7c-1.4,0.2-2.8-0.6-4.1-0.8c-1.6-0.2-2.5,0.6-3.3,1.3
			c-1-3.4,1.2-4.9,3.8-4.6c1.4,0.2,2.7,1.2,3.7,1.5c1.5,0.4,2.4-0.3,2.6-1.3C83.6,67.4,83.4,68,83.4,68.2 M89.7,74.5
			c0-6.7-4.8-11.8-11.8-11.8c-6.9,0-11.7,5.1-11.7,11.8c0,6.7,4.8,11.8,11.7,11.8C84.9,86.3,89.7,81.2,89.7,74.5"/>
	</g>
</g>
<g>
</g>
<g>
</g>
<g>
</g>
<g>
</g>
<g>
</g>
<g>
</g>
</svg>
